<mxfile host="app.diagrams.net" modified="2023-12-07T03:29:02.206Z" agent="Mozilla/5.0 (Windows NT 10.0; Win64; x64) AppleWebKit/537.36 (KHTML, like Gecko) Chrome/119.0.0.0 Safari/537.36" etag="J2XiS6PULnVPrwUOTyuw" version="22.1.7" type="device">
  <diagram name="第 1 页" id="le4gJCOFIcP9ISF7qcCe">
    <mxGraphModel dx="1687" dy="980" grid="1" gridSize="10" guides="1" tooltips="1" connect="1" arrows="1" fold="1" page="1" pageScale="1" pageWidth="10000" pageHeight="10000" math="0" shadow="0">
      <root>
        <mxCell id="0" />
        <mxCell id="1" parent="0" />
        <mxCell id="7t0lA7AnkTjz9z_76om1-1" value="" style="whiteSpace=wrap;html=1;aspect=fixed;fillColor=none;" vertex="1" parent="1">
          <mxGeometry x="200" y="240" width="80" height="80" as="geometry" />
        </mxCell>
        <mxCell id="7t0lA7AnkTjz9z_76om1-2" value="&lt;font style=&quot;font-size: 18px;&quot; face=&quot;Comic Sans MS&quot;&gt;Exist&lt;/font&gt;" style="text;html=1;strokeColor=none;fillColor=none;align=center;verticalAlign=middle;whiteSpace=wrap;rounded=0;" vertex="1" parent="1">
          <mxGeometry x="210" y="280" width="60" height="30" as="geometry" />
        </mxCell>
        <mxCell id="7t0lA7AnkTjz9z_76om1-3" value="&lt;font style=&quot;font-size: 18px;&quot; face=&quot;Comic Sans MS&quot;&gt;shard 1&lt;/font&gt;" style="text;html=1;strokeColor=none;fillColor=none;align=center;verticalAlign=middle;whiteSpace=wrap;rounded=0;" vertex="1" parent="1">
          <mxGeometry x="205" y="250" width="70" height="30" as="geometry" />
        </mxCell>
        <mxCell id="7t0lA7AnkTjz9z_76om1-4" value="" style="whiteSpace=wrap;html=1;aspect=fixed;fillColor=none;" vertex="1" parent="1">
          <mxGeometry x="280" y="240" width="80" height="80" as="geometry" />
        </mxCell>
        <mxCell id="7t0lA7AnkTjz9z_76om1-5" value="&lt;font style=&quot;font-size: 18px;&quot; face=&quot;Comic Sans MS&quot;&gt;NoExist&lt;/font&gt;" style="text;html=1;strokeColor=none;fillColor=none;align=center;verticalAlign=middle;whiteSpace=wrap;rounded=0;" vertex="1" parent="1">
          <mxGeometry x="290" y="280" width="60" height="30" as="geometry" />
        </mxCell>
        <mxCell id="7t0lA7AnkTjz9z_76om1-6" value="&lt;font style=&quot;font-size: 18px;&quot; face=&quot;Comic Sans MS&quot;&gt;shard 2&lt;/font&gt;" style="text;html=1;strokeColor=none;fillColor=none;align=center;verticalAlign=middle;whiteSpace=wrap;rounded=0;" vertex="1" parent="1">
          <mxGeometry x="285" y="250" width="70" height="30" as="geometry" />
        </mxCell>
        <mxCell id="7t0lA7AnkTjz9z_76om1-13" value="&lt;font style=&quot;font-size: 24px;&quot; face=&quot;Comic Sans MS&quot;&gt;Group 2&lt;br&gt;config 1&lt;br&gt;&lt;/font&gt;" style="text;html=1;strokeColor=none;fillColor=none;align=center;verticalAlign=middle;whiteSpace=wrap;rounded=0;" vertex="1" parent="1">
          <mxGeometry x="50" y="265" width="100" height="30" as="geometry" />
        </mxCell>
        <mxCell id="7t0lA7AnkTjz9z_76om1-17" value="" style="whiteSpace=wrap;html=1;aspect=fixed;fillColor=none;" vertex="1" parent="1">
          <mxGeometry x="280" y="80" width="80" height="80" as="geometry" />
        </mxCell>
        <mxCell id="7t0lA7AnkTjz9z_76om1-18" value="&lt;font style=&quot;font-size: 18px;&quot; face=&quot;Comic Sans MS&quot;&gt;Exist&lt;/font&gt;" style="text;html=1;strokeColor=none;fillColor=none;align=center;verticalAlign=middle;whiteSpace=wrap;rounded=0;" vertex="1" parent="1">
          <mxGeometry x="290" y="120" width="60" height="30" as="geometry" />
        </mxCell>
        <mxCell id="7t0lA7AnkTjz9z_76om1-19" value="&lt;font style=&quot;font-size: 18px;&quot; face=&quot;Comic Sans MS&quot;&gt;shard 2&lt;/font&gt;" style="text;html=1;strokeColor=none;fillColor=none;align=center;verticalAlign=middle;whiteSpace=wrap;rounded=0;" vertex="1" parent="1">
          <mxGeometry x="285" y="90" width="70" height="30" as="geometry" />
        </mxCell>
        <mxCell id="7t0lA7AnkTjz9z_76om1-26" value="&lt;font style=&quot;font-size: 24px;&quot; face=&quot;Comic Sans MS&quot;&gt;Group 1&lt;br&gt;config 1&lt;br&gt;&lt;/font&gt;" style="text;html=1;strokeColor=none;fillColor=none;align=center;verticalAlign=middle;whiteSpace=wrap;rounded=0;" vertex="1" parent="1">
          <mxGeometry x="50" y="105" width="100" height="30" as="geometry" />
        </mxCell>
        <mxCell id="7t0lA7AnkTjz9z_76om1-27" value="" style="whiteSpace=wrap;html=1;aspect=fixed;fillColor=none;" vertex="1" parent="1">
          <mxGeometry x="200" y="400" width="80" height="80" as="geometry" />
        </mxCell>
        <mxCell id="7t0lA7AnkTjz9z_76om1-28" value="&lt;font style=&quot;font-size: 18px;&quot; face=&quot;Comic Sans MS&quot;&gt;NoExist&lt;/font&gt;" style="text;html=1;strokeColor=none;fillColor=none;align=center;verticalAlign=middle;whiteSpace=wrap;rounded=0;" vertex="1" parent="1">
          <mxGeometry x="210" y="440" width="60" height="30" as="geometry" />
        </mxCell>
        <mxCell id="7t0lA7AnkTjz9z_76om1-29" value="&lt;font style=&quot;font-size: 18px;&quot; face=&quot;Comic Sans MS&quot;&gt;shard 1&lt;/font&gt;" style="text;html=1;strokeColor=none;fillColor=none;align=center;verticalAlign=middle;whiteSpace=wrap;rounded=0;" vertex="1" parent="1">
          <mxGeometry x="205" y="410" width="70" height="30" as="geometry" />
        </mxCell>
        <mxCell id="7t0lA7AnkTjz9z_76om1-39" value="&lt;font style=&quot;font-size: 24px;&quot; face=&quot;Comic Sans MS&quot;&gt;Group 3&lt;br&gt;config 1&lt;br&gt;&lt;/font&gt;" style="text;html=1;strokeColor=none;fillColor=none;align=center;verticalAlign=middle;whiteSpace=wrap;rounded=0;" vertex="1" parent="1">
          <mxGeometry x="50" y="425" width="100" height="30" as="geometry" />
        </mxCell>
        <mxCell id="7t0lA7AnkTjz9z_76om1-40" value="" style="shape=flexArrow;endArrow=classic;html=1;rounded=0;" edge="1" parent="1">
          <mxGeometry width="50" height="50" relative="1" as="geometry">
            <mxPoint x="440" y="280" as="sourcePoint" />
            <mxPoint x="590" y="280" as="targetPoint" />
          </mxGeometry>
        </mxCell>
        <mxCell id="7t0lA7AnkTjz9z_76om1-41" value="" style="shape=flexArrow;endArrow=classic;html=1;rounded=0;" edge="1" parent="1">
          <mxGeometry width="50" height="50" relative="1" as="geometry">
            <mxPoint x="440" y="120" as="sourcePoint" />
            <mxPoint x="590" y="120" as="targetPoint" />
          </mxGeometry>
        </mxCell>
        <mxCell id="7t0lA7AnkTjz9z_76om1-42" value="" style="shape=flexArrow;endArrow=classic;html=1;rounded=0;" edge="1" parent="1">
          <mxGeometry width="50" height="50" relative="1" as="geometry">
            <mxPoint x="440" y="440" as="sourcePoint" />
            <mxPoint x="590" y="440" as="targetPoint" />
          </mxGeometry>
        </mxCell>
        <mxCell id="7t0lA7AnkTjz9z_76om1-43" value="&lt;font color=&quot;#ea6b66&quot; style=&quot;font-size: 18px;&quot; face=&quot;Comic Sans MS&quot;&gt;UpdateConfig&lt;/font&gt;" style="text;html=1;strokeColor=none;fillColor=none;align=center;verticalAlign=middle;whiteSpace=wrap;rounded=0;" vertex="1" parent="1">
          <mxGeometry x="480" y="235" width="70" height="30" as="geometry" />
        </mxCell>
        <mxCell id="7t0lA7AnkTjz9z_76om1-44" value="&lt;font color=&quot;#ea6b66&quot; style=&quot;font-size: 18px;&quot; face=&quot;Comic Sans MS&quot;&gt;UpdateConfig&lt;/font&gt;" style="text;html=1;strokeColor=none;fillColor=none;align=center;verticalAlign=middle;whiteSpace=wrap;rounded=0;" vertex="1" parent="1">
          <mxGeometry x="480" y="75" width="70" height="30" as="geometry" />
        </mxCell>
        <mxCell id="7t0lA7AnkTjz9z_76om1-45" value="&lt;font color=&quot;#ea6b66&quot; style=&quot;font-size: 18px;&quot; face=&quot;Comic Sans MS&quot;&gt;UpdateConfig&lt;/font&gt;" style="text;html=1;strokeColor=none;fillColor=none;align=center;verticalAlign=middle;whiteSpace=wrap;rounded=0;" vertex="1" parent="1">
          <mxGeometry x="480" y="395" width="70" height="30" as="geometry" />
        </mxCell>
        <mxCell id="7t0lA7AnkTjz9z_76om1-46" value="&lt;font style=&quot;font-size: 18px;&quot; face=&quot;Comic Sans MS&quot;&gt;config 2&lt;/font&gt;" style="text;html=1;strokeColor=none;fillColor=none;align=center;verticalAlign=middle;whiteSpace=wrap;rounded=0;" vertex="1" parent="1">
          <mxGeometry x="470" y="130" width="90" height="30" as="geometry" />
        </mxCell>
        <mxCell id="7t0lA7AnkTjz9z_76om1-47" value="&lt;font style=&quot;font-size: 18px;&quot; face=&quot;Comic Sans MS&quot;&gt;config 2&lt;/font&gt;" style="text;html=1;strokeColor=none;fillColor=none;align=center;verticalAlign=middle;whiteSpace=wrap;rounded=0;" vertex="1" parent="1">
          <mxGeometry x="470" y="290" width="90" height="30" as="geometry" />
        </mxCell>
        <mxCell id="7t0lA7AnkTjz9z_76om1-48" value="&lt;font style=&quot;font-size: 18px;&quot; face=&quot;Comic Sans MS&quot;&gt;config 2&lt;/font&gt;" style="text;html=1;strokeColor=none;fillColor=none;align=center;verticalAlign=middle;whiteSpace=wrap;rounded=0;" vertex="1" parent="1">
          <mxGeometry x="470" y="450" width="90" height="30" as="geometry" />
        </mxCell>
        <mxCell id="7t0lA7AnkTjz9z_76om1-52" value="" style="whiteSpace=wrap;html=1;aspect=fixed;fillColor=none;" vertex="1" parent="1">
          <mxGeometry x="600" y="240" width="80" height="80" as="geometry" />
        </mxCell>
        <mxCell id="7t0lA7AnkTjz9z_76om1-53" value="&lt;font style=&quot;font-size: 18px;&quot; face=&quot;Comic Sans MS&quot;&gt;WaitGive&lt;/font&gt;" style="text;html=1;strokeColor=none;fillColor=none;align=center;verticalAlign=middle;whiteSpace=wrap;rounded=0;" vertex="1" parent="1">
          <mxGeometry x="610" y="280" width="60" height="30" as="geometry" />
        </mxCell>
        <mxCell id="7t0lA7AnkTjz9z_76om1-54" value="&lt;font style=&quot;font-size: 18px;&quot; face=&quot;Comic Sans MS&quot;&gt;shard 1&lt;/font&gt;" style="text;html=1;strokeColor=none;fillColor=none;align=center;verticalAlign=middle;whiteSpace=wrap;rounded=0;" vertex="1" parent="1">
          <mxGeometry x="605" y="250" width="70" height="30" as="geometry" />
        </mxCell>
        <mxCell id="7t0lA7AnkTjz9z_76om1-55" value="" style="whiteSpace=wrap;html=1;aspect=fixed;fillColor=none;" vertex="1" parent="1">
          <mxGeometry x="680" y="240" width="80" height="80" as="geometry" />
        </mxCell>
        <mxCell id="7t0lA7AnkTjz9z_76om1-56" value="&lt;font style=&quot;font-size: 18px;&quot; face=&quot;Comic Sans MS&quot;&gt;WaitGet&lt;/font&gt;" style="text;html=1;strokeColor=none;fillColor=none;align=center;verticalAlign=middle;whiteSpace=wrap;rounded=0;" vertex="1" parent="1">
          <mxGeometry x="690" y="280" width="60" height="30" as="geometry" />
        </mxCell>
        <mxCell id="7t0lA7AnkTjz9z_76om1-57" value="&lt;font style=&quot;font-size: 18px;&quot; face=&quot;Comic Sans MS&quot;&gt;shard 2&lt;/font&gt;" style="text;html=1;strokeColor=none;fillColor=none;align=center;verticalAlign=middle;whiteSpace=wrap;rounded=0;" vertex="1" parent="1">
          <mxGeometry x="685" y="250" width="70" height="30" as="geometry" />
        </mxCell>
        <mxCell id="7t0lA7AnkTjz9z_76om1-58" value="" style="whiteSpace=wrap;html=1;aspect=fixed;fillColor=none;" vertex="1" parent="1">
          <mxGeometry x="680" y="80" width="80" height="80" as="geometry" />
        </mxCell>
        <mxCell id="7t0lA7AnkTjz9z_76om1-59" value="&lt;font style=&quot;font-size: 18px;&quot; face=&quot;Comic Sans MS&quot;&gt;WaitGive&lt;/font&gt;" style="text;html=1;strokeColor=none;fillColor=none;align=center;verticalAlign=middle;whiteSpace=wrap;rounded=0;" vertex="1" parent="1">
          <mxGeometry x="690" y="120" width="60" height="30" as="geometry" />
        </mxCell>
        <mxCell id="7t0lA7AnkTjz9z_76om1-60" value="&lt;font style=&quot;font-size: 18px;&quot; face=&quot;Comic Sans MS&quot;&gt;shard 2&lt;/font&gt;" style="text;html=1;strokeColor=none;fillColor=none;align=center;verticalAlign=middle;whiteSpace=wrap;rounded=0;" vertex="1" parent="1">
          <mxGeometry x="685" y="90" width="70" height="30" as="geometry" />
        </mxCell>
        <mxCell id="7t0lA7AnkTjz9z_76om1-61" value="" style="whiteSpace=wrap;html=1;aspect=fixed;fillColor=none;" vertex="1" parent="1">
          <mxGeometry x="600" y="400" width="80" height="80" as="geometry" />
        </mxCell>
        <mxCell id="7t0lA7AnkTjz9z_76om1-62" value="&lt;font style=&quot;font-size: 18px;&quot; face=&quot;Comic Sans MS&quot;&gt;WaitGet&lt;/font&gt;" style="text;html=1;strokeColor=none;fillColor=none;align=center;verticalAlign=middle;whiteSpace=wrap;rounded=0;" vertex="1" parent="1">
          <mxGeometry x="610" y="440" width="60" height="30" as="geometry" />
        </mxCell>
        <mxCell id="7t0lA7AnkTjz9z_76om1-63" value="&lt;font style=&quot;font-size: 18px;&quot; face=&quot;Comic Sans MS&quot;&gt;shard 1&lt;/font&gt;" style="text;html=1;strokeColor=none;fillColor=none;align=center;verticalAlign=middle;whiteSpace=wrap;rounded=0;" vertex="1" parent="1">
          <mxGeometry x="605" y="410" width="70" height="30" as="geometry" />
        </mxCell>
        <mxCell id="7t0lA7AnkTjz9z_76om1-64" value="&lt;font style=&quot;font-size: 18px;&quot;&gt;配置更新检测&lt;/font&gt;" style="rounded=1;whiteSpace=wrap;html=1;fillColor=none;strokeColor=#82b366;" vertex="1" parent="1">
          <mxGeometry x="400" y="80" width="35" height="400" as="geometry" />
        </mxCell>
        <mxCell id="7t0lA7AnkTjz9z_76om1-65" value="" style="shape=flexArrow;endArrow=classic;html=1;rounded=0;" edge="1" parent="1">
          <mxGeometry width="50" height="50" relative="1" as="geometry">
            <mxPoint x="370" y="119" as="sourcePoint" />
            <mxPoint x="400" y="119" as="targetPoint" />
          </mxGeometry>
        </mxCell>
        <mxCell id="7t0lA7AnkTjz9z_76om1-67" value="" style="shape=flexArrow;endArrow=classic;html=1;rounded=0;" edge="1" parent="1">
          <mxGeometry width="50" height="50" relative="1" as="geometry">
            <mxPoint x="370" y="280" as="sourcePoint" />
            <mxPoint x="400" y="280" as="targetPoint" />
          </mxGeometry>
        </mxCell>
        <mxCell id="7t0lA7AnkTjz9z_76om1-68" value="" style="shape=flexArrow;endArrow=classic;html=1;rounded=0;" edge="1" parent="1">
          <mxGeometry width="50" height="50" relative="1" as="geometry">
            <mxPoint x="370" y="439" as="sourcePoint" />
            <mxPoint x="400" y="439" as="targetPoint" />
          </mxGeometry>
        </mxCell>
        <mxCell id="7t0lA7AnkTjz9z_76om1-69" value="" style="endArrow=classic;html=1;rounded=0;strokeWidth=2;" edge="1" parent="1">
          <mxGeometry width="50" height="50" relative="1" as="geometry">
            <mxPoint x="710" y="235" as="sourcePoint" />
            <mxPoint x="710" y="165" as="targetPoint" />
          </mxGeometry>
        </mxCell>
        <mxCell id="7t0lA7AnkTjz9z_76om1-70" value="&lt;font style=&quot;font-size: 18px;&quot; face=&quot;Comic Sans MS&quot;&gt;请求迁移shard 2&lt;/font&gt;" style="text;html=1;strokeColor=none;fillColor=none;align=center;verticalAlign=middle;whiteSpace=wrap;rounded=0;" vertex="1" parent="1">
          <mxGeometry x="620" y="190" width="100" height="30" as="geometry" />
        </mxCell>
        <mxCell id="7t0lA7AnkTjz9z_76om1-72" value="" style="endArrow=classic;html=1;rounded=0;strokeWidth=2;" edge="1" parent="1">
          <mxGeometry width="50" height="50" relative="1" as="geometry">
            <mxPoint x="630" y="395" as="sourcePoint" />
            <mxPoint x="630" y="325" as="targetPoint" />
          </mxGeometry>
        </mxCell>
        <mxCell id="7t0lA7AnkTjz9z_76om1-73" value="&lt;font style=&quot;font-size: 18px;&quot; face=&quot;Comic Sans MS&quot;&gt;请求迁移shard 1&lt;/font&gt;" style="text;html=1;strokeColor=none;fillColor=none;align=center;verticalAlign=middle;whiteSpace=wrap;rounded=0;" vertex="1" parent="1">
          <mxGeometry x="540" y="350" width="100" height="30" as="geometry" />
        </mxCell>
        <mxCell id="7t0lA7AnkTjz9z_76om1-74" value="" style="shape=flexArrow;endArrow=classic;html=1;rounded=0;" edge="1" parent="1">
          <mxGeometry width="50" height="50" relative="1" as="geometry">
            <mxPoint x="790" y="282.5" as="sourcePoint" />
            <mxPoint x="940" y="282.5" as="targetPoint" />
          </mxGeometry>
        </mxCell>
        <mxCell id="7t0lA7AnkTjz9z_76om1-76" value="" style="shape=flexArrow;endArrow=classic;html=1;rounded=0;" edge="1" parent="1">
          <mxGeometry width="50" height="50" relative="1" as="geometry">
            <mxPoint x="790" y="442.5" as="sourcePoint" />
            <mxPoint x="940" y="442.5" as="targetPoint" />
          </mxGeometry>
        </mxCell>
        <mxCell id="7t0lA7AnkTjz9z_76om1-78" value="&lt;font color=&quot;#67ab9f&quot; style=&quot;font-size: 18px;&quot; face=&quot;Comic Sans MS&quot;&gt;GetShard&lt;/font&gt;" style="text;html=1;strokeColor=none;fillColor=none;align=center;verticalAlign=middle;whiteSpace=wrap;rounded=0;" vertex="1" parent="1">
          <mxGeometry x="830" y="240" width="70" height="30" as="geometry" />
        </mxCell>
        <mxCell id="7t0lA7AnkTjz9z_76om1-81" value="&lt;font style=&quot;font-size: 18px;&quot; face=&quot;Comic Sans MS&quot;&gt;config 2&lt;br&gt;shard 2&lt;br&gt;&lt;/font&gt;" style="text;html=1;strokeColor=none;fillColor=none;align=center;verticalAlign=middle;whiteSpace=wrap;rounded=0;" vertex="1" parent="1">
          <mxGeometry x="820" y="292.5" width="90" height="30" as="geometry" />
        </mxCell>
        <mxCell id="7t0lA7AnkTjz9z_76om1-88" value="&lt;font color=&quot;#67ab9f&quot; style=&quot;font-size: 18px;&quot; face=&quot;Comic Sans MS&quot;&gt;GetShard&lt;/font&gt;" style="text;html=1;strokeColor=none;fillColor=none;align=center;verticalAlign=middle;whiteSpace=wrap;rounded=0;" vertex="1" parent="1">
          <mxGeometry x="830" y="400" width="70" height="30" as="geometry" />
        </mxCell>
        <mxCell id="7t0lA7AnkTjz9z_76om1-89" value="&lt;font style=&quot;font-size: 18px;&quot; face=&quot;Comic Sans MS&quot;&gt;config 2&lt;br&gt;shard 1&lt;br&gt;&lt;/font&gt;" style="text;html=1;strokeColor=none;fillColor=none;align=center;verticalAlign=middle;whiteSpace=wrap;rounded=0;" vertex="1" parent="1">
          <mxGeometry x="820" y="460" width="90" height="30" as="geometry" />
        </mxCell>
        <mxCell id="7t0lA7AnkTjz9z_76om1-90" value="" style="endArrow=classic;html=1;rounded=0;strokeWidth=2;" edge="1" parent="1">
          <mxGeometry width="50" height="50" relative="1" as="geometry">
            <mxPoint x="730" y="165" as="sourcePoint" />
            <mxPoint x="730" y="235" as="targetPoint" />
          </mxGeometry>
        </mxCell>
        <mxCell id="7t0lA7AnkTjz9z_76om1-91" value="" style="endArrow=classic;html=1;rounded=0;strokeWidth=2;" edge="1" parent="1">
          <mxGeometry width="50" height="50" relative="1" as="geometry">
            <mxPoint x="650" y="325" as="sourcePoint" />
            <mxPoint x="650" y="395" as="targetPoint" />
          </mxGeometry>
        </mxCell>
        <mxCell id="7t0lA7AnkTjz9z_76om1-92" value="&lt;font face=&quot;Comic Sans MS&quot;&gt;&lt;span style=&quot;font-size: 18px;&quot;&gt;shard 1&lt;/span&gt;&lt;/font&gt;" style="text;html=1;strokeColor=none;fillColor=none;align=center;verticalAlign=middle;whiteSpace=wrap;rounded=0;" vertex="1" parent="1">
          <mxGeometry x="640" y="340" width="100" height="30" as="geometry" />
        </mxCell>
        <mxCell id="7t0lA7AnkTjz9z_76om1-93" value="&lt;font face=&quot;Comic Sans MS&quot;&gt;&lt;span style=&quot;font-size: 18px;&quot;&gt;shard 2&lt;/span&gt;&lt;/font&gt;" style="text;html=1;strokeColor=none;fillColor=none;align=center;verticalAlign=middle;whiteSpace=wrap;rounded=0;" vertex="1" parent="1">
          <mxGeometry x="720" y="180" width="100" height="30" as="geometry" />
        </mxCell>
        <mxCell id="7t0lA7AnkTjz9z_76om1-94" value="" style="whiteSpace=wrap;html=1;aspect=fixed;fillColor=none;" vertex="1" parent="1">
          <mxGeometry x="960" y="240" width="80" height="80" as="geometry" />
        </mxCell>
        <mxCell id="7t0lA7AnkTjz9z_76om1-95" value="&lt;font style=&quot;font-size: 18px;&quot; face=&quot;Comic Sans MS&quot;&gt;WaitGive&lt;/font&gt;" style="text;html=1;strokeColor=none;fillColor=none;align=center;verticalAlign=middle;whiteSpace=wrap;rounded=0;" vertex="1" parent="1">
          <mxGeometry x="970" y="280" width="60" height="30" as="geometry" />
        </mxCell>
        <mxCell id="7t0lA7AnkTjz9z_76om1-96" value="&lt;font style=&quot;font-size: 18px;&quot; face=&quot;Comic Sans MS&quot;&gt;shard 1&lt;/font&gt;" style="text;html=1;strokeColor=none;fillColor=none;align=center;verticalAlign=middle;whiteSpace=wrap;rounded=0;" vertex="1" parent="1">
          <mxGeometry x="965" y="250" width="70" height="30" as="geometry" />
        </mxCell>
        <mxCell id="7t0lA7AnkTjz9z_76om1-97" value="" style="whiteSpace=wrap;html=1;aspect=fixed;fillColor=none;" vertex="1" parent="1">
          <mxGeometry x="1040" y="240" width="80" height="80" as="geometry" />
        </mxCell>
        <mxCell id="7t0lA7AnkTjz9z_76om1-98" value="&lt;font style=&quot;font-size: 18px;&quot; face=&quot;Comic Sans MS&quot;&gt;Exist&lt;/font&gt;" style="text;html=1;strokeColor=none;fillColor=none;align=center;verticalAlign=middle;whiteSpace=wrap;rounded=0;" vertex="1" parent="1">
          <mxGeometry x="1050" y="280" width="60" height="30" as="geometry" />
        </mxCell>
        <mxCell id="7t0lA7AnkTjz9z_76om1-99" value="&lt;font style=&quot;font-size: 18px;&quot; face=&quot;Comic Sans MS&quot;&gt;shard 2&lt;/font&gt;" style="text;html=1;strokeColor=none;fillColor=none;align=center;verticalAlign=middle;whiteSpace=wrap;rounded=0;" vertex="1" parent="1">
          <mxGeometry x="1045" y="250" width="70" height="30" as="geometry" />
        </mxCell>
        <mxCell id="7t0lA7AnkTjz9z_76om1-100" value="" style="whiteSpace=wrap;html=1;aspect=fixed;fillColor=none;" vertex="1" parent="1">
          <mxGeometry x="1040" y="80" width="80" height="80" as="geometry" />
        </mxCell>
        <mxCell id="7t0lA7AnkTjz9z_76om1-101" value="&lt;font style=&quot;font-size: 18px;&quot; face=&quot;Comic Sans MS&quot;&gt;WaitGive&lt;/font&gt;" style="text;html=1;strokeColor=none;fillColor=none;align=center;verticalAlign=middle;whiteSpace=wrap;rounded=0;" vertex="1" parent="1">
          <mxGeometry x="1050" y="120" width="60" height="30" as="geometry" />
        </mxCell>
        <mxCell id="7t0lA7AnkTjz9z_76om1-102" value="&lt;font style=&quot;font-size: 18px;&quot; face=&quot;Comic Sans MS&quot;&gt;shard 2&lt;/font&gt;" style="text;html=1;strokeColor=none;fillColor=none;align=center;verticalAlign=middle;whiteSpace=wrap;rounded=0;" vertex="1" parent="1">
          <mxGeometry x="1045" y="90" width="70" height="30" as="geometry" />
        </mxCell>
        <mxCell id="7t0lA7AnkTjz9z_76om1-103" value="" style="whiteSpace=wrap;html=1;aspect=fixed;fillColor=none;" vertex="1" parent="1">
          <mxGeometry x="960" y="400" width="80" height="80" as="geometry" />
        </mxCell>
        <mxCell id="7t0lA7AnkTjz9z_76om1-104" value="&lt;font style=&quot;font-size: 18px;&quot; face=&quot;Comic Sans MS&quot;&gt;Exist&lt;/font&gt;" style="text;html=1;strokeColor=none;fillColor=none;align=center;verticalAlign=middle;whiteSpace=wrap;rounded=0;" vertex="1" parent="1">
          <mxGeometry x="970" y="440" width="60" height="30" as="geometry" />
        </mxCell>
        <mxCell id="7t0lA7AnkTjz9z_76om1-105" value="&lt;font style=&quot;font-size: 18px;&quot; face=&quot;Comic Sans MS&quot;&gt;shard 1&lt;/font&gt;" style="text;html=1;strokeColor=none;fillColor=none;align=center;verticalAlign=middle;whiteSpace=wrap;rounded=0;" vertex="1" parent="1">
          <mxGeometry x="965" y="410" width="70" height="30" as="geometry" />
        </mxCell>
        <mxCell id="7t0lA7AnkTjz9z_76om1-108" value="" style="endArrow=classic;html=1;rounded=0;strokeWidth=2;" edge="1" parent="1">
          <mxGeometry width="50" height="50" relative="1" as="geometry">
            <mxPoint x="1010" y="395" as="sourcePoint" />
            <mxPoint x="1010" y="325" as="targetPoint" />
          </mxGeometry>
        </mxCell>
        <mxCell id="7t0lA7AnkTjz9z_76om1-109" value="&lt;font style=&quot;font-size: 18px;&quot; face=&quot;Comic Sans MS&quot;&gt;Ack&lt;br&gt;shard 1&lt;/font&gt;" style="text;html=1;strokeColor=none;fillColor=none;align=center;verticalAlign=middle;whiteSpace=wrap;rounded=0;" vertex="1" parent="1">
          <mxGeometry x="1000" y="340" width="100" height="30" as="geometry" />
        </mxCell>
        <mxCell id="7t0lA7AnkTjz9z_76om1-111" value="" style="endArrow=classic;html=1;rounded=0;strokeWidth=2;" edge="1" parent="1">
          <mxGeometry width="50" height="50" relative="1" as="geometry">
            <mxPoint x="990" y="325" as="sourcePoint" />
            <mxPoint x="990" y="395" as="targetPoint" />
          </mxGeometry>
        </mxCell>
        <mxCell id="7t0lA7AnkTjz9z_76om1-112" value="&lt;font face=&quot;Comic Sans MS&quot;&gt;&lt;span style=&quot;font-size: 18px;&quot;&gt;shard 1&lt;br&gt;是否收到&lt;br&gt;&lt;/span&gt;&lt;/font&gt;" style="text;html=1;strokeColor=none;fillColor=none;align=center;verticalAlign=middle;whiteSpace=wrap;rounded=0;" vertex="1" parent="1">
          <mxGeometry x="900" y="340" width="100" height="30" as="geometry" />
        </mxCell>
        <mxCell id="7t0lA7AnkTjz9z_76om1-114" value="" style="endArrow=classic;html=1;rounded=0;strokeWidth=2;" edge="1" parent="1">
          <mxGeometry width="50" height="50" relative="1" as="geometry">
            <mxPoint x="1090" y="235" as="sourcePoint" />
            <mxPoint x="1090" y="165" as="targetPoint" />
          </mxGeometry>
        </mxCell>
        <mxCell id="7t0lA7AnkTjz9z_76om1-115" value="&lt;font style=&quot;font-size: 18px;&quot; face=&quot;Comic Sans MS&quot;&gt;Ack&lt;br&gt;shard 2&lt;/font&gt;" style="text;html=1;strokeColor=none;fillColor=none;align=center;verticalAlign=middle;whiteSpace=wrap;rounded=0;" vertex="1" parent="1">
          <mxGeometry x="1080" y="180" width="100" height="30" as="geometry" />
        </mxCell>
        <mxCell id="7t0lA7AnkTjz9z_76om1-116" value="" style="endArrow=classic;html=1;rounded=0;strokeWidth=2;" edge="1" parent="1">
          <mxGeometry width="50" height="50" relative="1" as="geometry">
            <mxPoint x="1070" y="165" as="sourcePoint" />
            <mxPoint x="1070" y="235" as="targetPoint" />
          </mxGeometry>
        </mxCell>
        <mxCell id="7t0lA7AnkTjz9z_76om1-117" value="&lt;font face=&quot;Comic Sans MS&quot;&gt;&lt;span style=&quot;font-size: 18px;&quot;&gt;shard 2&lt;br&gt;是否收到&lt;br&gt;&lt;/span&gt;&lt;/font&gt;" style="text;html=1;strokeColor=none;fillColor=none;align=center;verticalAlign=middle;whiteSpace=wrap;rounded=0;" vertex="1" parent="1">
          <mxGeometry x="980" y="180" width="100" height="30" as="geometry" />
        </mxCell>
        <mxCell id="7t0lA7AnkTjz9z_76om1-118" value="" style="shape=flexArrow;endArrow=classic;html=1;rounded=0;" edge="1" parent="1">
          <mxGeometry width="50" height="50" relative="1" as="geometry">
            <mxPoint x="1150" y="122.5" as="sourcePoint" />
            <mxPoint x="1300" y="122.5" as="targetPoint" />
          </mxGeometry>
        </mxCell>
        <mxCell id="7t0lA7AnkTjz9z_76om1-119" value="" style="shape=flexArrow;endArrow=classic;html=1;rounded=0;" edge="1" parent="1">
          <mxGeometry width="50" height="50" relative="1" as="geometry">
            <mxPoint x="1150" y="282.5" as="sourcePoint" />
            <mxPoint x="1300" y="282.5" as="targetPoint" />
          </mxGeometry>
        </mxCell>
        <mxCell id="7t0lA7AnkTjz9z_76om1-120" value="&lt;font color=&quot;#0a8dff&quot; style=&quot;font-size: 18px;&quot; face=&quot;Comic Sans MS&quot;&gt;GiveShard&lt;/font&gt;" style="text;html=1;strokeColor=none;fillColor=none;align=center;verticalAlign=middle;whiteSpace=wrap;rounded=0;" vertex="1" parent="1">
          <mxGeometry x="1190" y="80" width="70" height="30" as="geometry" />
        </mxCell>
        <mxCell id="7t0lA7AnkTjz9z_76om1-121" value="&lt;font style=&quot;font-size: 18px;&quot; face=&quot;Comic Sans MS&quot;&gt;config 2&lt;br&gt;shard 2&lt;br&gt;&lt;/font&gt;" style="text;html=1;strokeColor=none;fillColor=none;align=center;verticalAlign=middle;whiteSpace=wrap;rounded=0;" vertex="1" parent="1">
          <mxGeometry x="1180" y="132.5" width="90" height="30" as="geometry" />
        </mxCell>
        <mxCell id="7t0lA7AnkTjz9z_76om1-122" value="&lt;font color=&quot;#0a8dff&quot; style=&quot;font-size: 18px;&quot; face=&quot;Comic Sans MS&quot;&gt;GiveShard&lt;/font&gt;" style="text;html=1;strokeColor=none;fillColor=none;align=center;verticalAlign=middle;whiteSpace=wrap;rounded=0;" vertex="1" parent="1">
          <mxGeometry x="1190" y="240" width="70" height="30" as="geometry" />
        </mxCell>
        <mxCell id="7t0lA7AnkTjz9z_76om1-123" value="&lt;font style=&quot;font-size: 18px;&quot; face=&quot;Comic Sans MS&quot;&gt;config 2&lt;br&gt;shard 1&lt;br&gt;&lt;/font&gt;" style="text;html=1;strokeColor=none;fillColor=none;align=center;verticalAlign=middle;whiteSpace=wrap;rounded=0;" vertex="1" parent="1">
          <mxGeometry x="1180" y="300" width="90" height="30" as="geometry" />
        </mxCell>
        <mxCell id="7t0lA7AnkTjz9z_76om1-124" value="" style="whiteSpace=wrap;html=1;aspect=fixed;fillColor=none;" vertex="1" parent="1">
          <mxGeometry x="1310" y="240" width="80" height="80" as="geometry" />
        </mxCell>
        <mxCell id="7t0lA7AnkTjz9z_76om1-125" value="&lt;font style=&quot;font-size: 18px;&quot; face=&quot;Comic Sans MS&quot;&gt;NoExist&lt;/font&gt;" style="text;html=1;strokeColor=none;fillColor=none;align=center;verticalAlign=middle;whiteSpace=wrap;rounded=0;" vertex="1" parent="1">
          <mxGeometry x="1320" y="280" width="60" height="30" as="geometry" />
        </mxCell>
        <mxCell id="7t0lA7AnkTjz9z_76om1-126" value="&lt;font style=&quot;font-size: 18px;&quot; face=&quot;Comic Sans MS&quot;&gt;shard 1&lt;/font&gt;" style="text;html=1;strokeColor=none;fillColor=none;align=center;verticalAlign=middle;whiteSpace=wrap;rounded=0;" vertex="1" parent="1">
          <mxGeometry x="1315" y="250" width="70" height="30" as="geometry" />
        </mxCell>
        <mxCell id="7t0lA7AnkTjz9z_76om1-127" value="" style="whiteSpace=wrap;html=1;aspect=fixed;fillColor=none;" vertex="1" parent="1">
          <mxGeometry x="1390" y="240" width="80" height="80" as="geometry" />
        </mxCell>
        <mxCell id="7t0lA7AnkTjz9z_76om1-128" value="&lt;font style=&quot;font-size: 18px;&quot; face=&quot;Comic Sans MS&quot;&gt;Exist&lt;/font&gt;" style="text;html=1;strokeColor=none;fillColor=none;align=center;verticalAlign=middle;whiteSpace=wrap;rounded=0;" vertex="1" parent="1">
          <mxGeometry x="1400" y="280" width="60" height="30" as="geometry" />
        </mxCell>
        <mxCell id="7t0lA7AnkTjz9z_76om1-129" value="&lt;font style=&quot;font-size: 18px;&quot; face=&quot;Comic Sans MS&quot;&gt;shard 2&lt;/font&gt;" style="text;html=1;strokeColor=none;fillColor=none;align=center;verticalAlign=middle;whiteSpace=wrap;rounded=0;" vertex="1" parent="1">
          <mxGeometry x="1395" y="250" width="70" height="30" as="geometry" />
        </mxCell>
        <mxCell id="7t0lA7AnkTjz9z_76om1-130" value="" style="whiteSpace=wrap;html=1;aspect=fixed;fillColor=none;" vertex="1" parent="1">
          <mxGeometry x="1390" y="80" width="80" height="80" as="geometry" />
        </mxCell>
        <mxCell id="7t0lA7AnkTjz9z_76om1-131" value="&lt;font style=&quot;font-size: 18px;&quot; face=&quot;Comic Sans MS&quot;&gt;NoExist&lt;/font&gt;" style="text;html=1;strokeColor=none;fillColor=none;align=center;verticalAlign=middle;whiteSpace=wrap;rounded=0;" vertex="1" parent="1">
          <mxGeometry x="1400" y="120" width="60" height="30" as="geometry" />
        </mxCell>
        <mxCell id="7t0lA7AnkTjz9z_76om1-132" value="&lt;font style=&quot;font-size: 18px;&quot; face=&quot;Comic Sans MS&quot;&gt;shard 2&lt;/font&gt;" style="text;html=1;strokeColor=none;fillColor=none;align=center;verticalAlign=middle;whiteSpace=wrap;rounded=0;" vertex="1" parent="1">
          <mxGeometry x="1395" y="90" width="70" height="30" as="geometry" />
        </mxCell>
        <mxCell id="7t0lA7AnkTjz9z_76om1-133" value="" style="whiteSpace=wrap;html=1;aspect=fixed;fillColor=none;" vertex="1" parent="1">
          <mxGeometry x="1310" y="400" width="80" height="80" as="geometry" />
        </mxCell>
        <mxCell id="7t0lA7AnkTjz9z_76om1-134" value="&lt;font style=&quot;font-size: 18px;&quot; face=&quot;Comic Sans MS&quot;&gt;Exist&lt;/font&gt;" style="text;html=1;strokeColor=none;fillColor=none;align=center;verticalAlign=middle;whiteSpace=wrap;rounded=0;" vertex="1" parent="1">
          <mxGeometry x="1320" y="440" width="60" height="30" as="geometry" />
        </mxCell>
        <mxCell id="7t0lA7AnkTjz9z_76om1-135" value="&lt;font style=&quot;font-size: 18px;&quot; face=&quot;Comic Sans MS&quot;&gt;shard 1&lt;/font&gt;" style="text;html=1;strokeColor=none;fillColor=none;align=center;verticalAlign=middle;whiteSpace=wrap;rounded=0;" vertex="1" parent="1">
          <mxGeometry x="1315" y="410" width="70" height="30" as="geometry" />
        </mxCell>
        <mxCell id="7t0lA7AnkTjz9z_76om1-144" value="&lt;font style=&quot;font-size: 24px;&quot; face=&quot;Comic Sans MS&quot;&gt;config 1&lt;br&gt;开始配置变更流程&lt;br&gt;&lt;/font&gt;" style="text;html=1;strokeColor=none;fillColor=none;align=center;verticalAlign=middle;whiteSpace=wrap;rounded=0;" vertex="1" parent="1">
          <mxGeometry x="190" y="570" width="210" height="30" as="geometry" />
        </mxCell>
        <mxCell id="7t0lA7AnkTjz9z_76om1-146" value="" style="endArrow=classic;html=1;rounded=0;exitX=1;exitY=0;exitDx=0;exitDy=0;strokeWidth=2;shape=arrow;dashed=1;" edge="1" parent="1">
          <mxGeometry width="50" height="50" relative="1" as="geometry">
            <mxPoint x="410" y="590" as="sourcePoint" />
            <mxPoint x="1292" y="590" as="targetPoint" />
          </mxGeometry>
        </mxCell>
        <mxCell id="7t0lA7AnkTjz9z_76om1-147" value="&lt;font style=&quot;font-size: 24px;&quot; face=&quot;Comic Sans MS&quot;&gt;config 1成功更新到config 2&lt;br&gt;shard迁移完成&lt;br&gt;&lt;/font&gt;" style="text;html=1;strokeColor=none;fillColor=none;align=center;verticalAlign=middle;whiteSpace=wrap;rounded=0;" vertex="1" parent="1">
          <mxGeometry x="1300" y="570" width="310" height="30" as="geometry" />
        </mxCell>
        <mxCell id="7t0lA7AnkTjz9z_76om1-149" value="&lt;font style=&quot;font-size: 24px;&quot; face=&quot;Comic Sans MS&quot;&gt;配置变更过程......&lt;br&gt;&lt;/font&gt;" style="text;html=1;strokeColor=none;fillColor=none;align=center;verticalAlign=middle;whiteSpace=wrap;rounded=0;" vertex="1" parent="1">
          <mxGeometry x="710" y="610" width="210" height="30" as="geometry" />
        </mxCell>
      </root>
    </mxGraphModel>
  </diagram>
</mxfile>
